<svg width="320" height="160" viewBox="0 0 320 160" fill="none" xmlns="http://www.w3.org/2000/svg">
<path d="M157.263 70.3139L147.549 77.7662C146.553 74.0395 143.314 71.3063 139.328 71.3063H132.354V88.4468H139.328C143.314 88.4468 146.801 85.7135 147.547 81.9869L157.263 89.4391L166.978 81.9869V88.4468H177.937V84.9682H170.715V71.3063H166.728V77.764L157.512 85.2185L155.519 83.4786L160.004 80L164.735 76.2734L161.995 74.0395L152.779 81.2415L150.787 79.5028L160.003 72.5478L157.262 70.3129L157.263 70.3139ZM136.091 74.7827H139.08C139.703 74.7827 140.311 74.9246 140.871 75.1803C141.431 75.437 141.944 75.8086 142.38 76.2744C142.815 76.7403 143.175 77.2982 143.424 77.9265C143.672 78.5559 143.811 79.2558 143.811 80C143.811 80.6836 143.687 81.351 143.457 81.9685C143.228 82.586 142.893 83.1525 142.473 83.6335C142.053 84.1145 141.547 84.511 140.975 84.7862C140.402 85.0625 139.766 85.2163 139.08 85.2163H136.091V74.7827ZM190.392 84.9693V88.4468H179.433V71.3063H183.418V84.9682H190.392V84.9693ZM160.002 41C138.58 41 120.895 58.6367 120.895 80C120.895 101.363 138.331 119 160.002 119C181.673 119 199.109 101.611 199.109 80C199.109 58.3886 181.424 41 160.002 41ZM160.002 44.9758C162.431 44.9758 164.8 45.2185 167.088 45.6843C169.377 46.1502 171.585 46.837 173.687 47.7221C175.788 48.6072 177.785 49.6916 179.653 50.9493C181.52 52.206 183.261 53.6371 184.849 55.2209C186.437 56.8048 187.871 58.5403 189.132 60.4025C190.393 62.2659 191.481 64.257 192.368 66.3522C193.256 68.4484 193.945 70.6509 194.412 72.9334C194.879 75.2149 195.122 77.5788 195.122 80C195.122 82.4224 194.879 84.7851 194.412 87.0677C193.945 89.3492 193.256 91.5516 192.368 93.6479C191.481 95.743 190.393 97.7342 189.132 99.5975C187.872 101.461 186.437 103.195 184.849 104.779C183.261 106.363 181.522 107.794 179.653 109.052C177.785 110.308 175.788 111.393 173.687 112.278C171.585 113.163 169.377 113.85 167.088 114.316C164.8 114.782 162.431 115.024 160.002 115.024C157.573 115.024 155.203 114.782 152.916 114.316C150.627 113.853 148.418 113.166 146.316 112.281C144.215 111.396 142.219 110.312 140.35 109.054C138.482 107.797 136.743 106.366 135.155 104.782C133.566 103.199 132.131 101.464 130.87 99.6008C129.609 97.7375 128.523 95.7463 127.635 93.6511C126.748 91.5549 126.059 89.3525 125.592 87.0699C125.125 84.7884 124.88 82.4256 124.88 80.0033C124.88 77.5809 125.125 75.2182 125.592 72.9367C126.059 70.6541 126.748 68.4517 127.635 66.3554C128.523 64.2603 129.609 62.2691 130.87 60.4058C132.131 58.5424 133.566 56.808 135.155 55.2242C136.743 53.6403 138.482 52.2093 140.35 50.9515C142.219 49.6948 144.215 48.6104 146.316 47.7253C148.418 46.8403 150.627 46.1534 152.916 45.6876C155.203 45.2218 157.573 44.9791 160.002 44.9791V44.9758Z" fill="#007DB8"/>
</svg>
