<svg width="320" height="160" viewBox="0 0 320 160" fill="none" xmlns="http://www.w3.org/2000/svg">
<path d="M107.112 103.98C103.03 103.817 99.6904 102.696 97.079 100.614C96.5806 100.217 95.3931 99.0242 94.9946 98.5212C93.9357 97.1849 93.2157 95.8844 92.7355 94.4415C91.2579 89.9998 92.0184 84.1713 94.9108 77.7746C97.3872 72.2982 101.209 66.8667 107.875 59.3442C108.857 58.2373 111.782 55 111.801 55C111.808 55 111.648 55.2771 111.448 55.6145C109.714 58.5284 108.231 61.9607 107.423 64.9321C106.125 69.7 106.282 73.7917 107.882 76.9644C108.985 79.1502 110.878 81.0434 113.005 82.09C116.73 83.9216 122.184 84.0731 128.843 82.5334C129.302 82.4267 152.023 76.3738 179.335 69.082C206.647 61.7895 228.997 55.8277 229 55.8326C229.008 55.839 165.547 83.091 132.603 97.2291C127.386 99.4675 125.991 100.033 123.538 100.897C117.268 103.107 111.652 104.161 107.112 103.98Z" fill="black"/>
</svg>
