<svg width="320" height="160" viewBox="0 0 320 160" fill="none" xmlns="http://www.w3.org/2000/svg">
<path fill-rule="evenodd" clip-rule="evenodd" d="M97 16H224V143H97V16Z" fill="white"/>
<path fill-rule="evenodd" clip-rule="evenodd" d="M135.903 77.752L134.053 73.6624L132.493 73.671L130.27 77.7533L135.903 77.752V77.752ZM132.703 72.7644L133.78 72.7756L133.329 71.5719L132.703 72.7644V72.7644ZM139.558 73.59L138.739 77.8541L192.365 77.868L190.846 73.5952H189.266L188.269 74.7575L187.157 73.5952L139.558 73.59ZM147.44 68.5049L144.732 63.2643L142.775 63.259L139.635 68.4858L147.44 68.5049ZM190.69 72.9568L190.067 71.2899L189.424 72.9568H190.69ZM172.94 62.6601V57.6494H171.66V56.0602L164.849 56.0536V57.658H163.718L163.336 58.8294L162.319 57.1619L160.469 61.2778H159.461L159.748 60.1874L157.979 56.0332L156.998 56.0411L155.053 60.2084L155.285 61.2778H154.524L155.018 62.6555L172.94 62.6601ZM157.478 54.5033L157.137 55.3335H157.836L157.478 54.5033V54.5033ZM171.66 55.4982V52.9978L172.571 51.0403L171.66 50.0903V47.8613H164.916L164.909 50.0876L164.041 51.0476L164.849 52.9893V55.4982H171.66V55.4982ZM143.026 62.8577H144.604L143.852 61.3305L143.026 62.8577V62.8577ZM133.227 69.903L133.227 68.5266L130.215 69.3298L133.227 69.903V69.903ZM143.871 59.5621L143.87 58.1864L140.858 58.9902L143.871 59.5621ZM157.404 52.7198L157.402 51.3441L154.391 52.1472L157.404 52.7198V52.7198ZM177.171 58.8782L177.169 57.5025L174.157 58.3056L177.171 58.8782ZM184.393 63.3637L184.391 61.988L181.38 62.7918L184.393 63.3637ZM134.345 115.747V114.684H131.146V115.747H132.124V122.033H131.146V123.096H134.345V122.033H133.368L133.371 115.747H134.345ZM156.596 115.819V117.158H157.606V114.684H151.365V117.158H152.379V115.819H153.865V122.033H152.887V123.096H156.087V122.033H155.109V115.819H156.596V115.819ZM146.988 120.616H145.621C145.483 120.832 145.316 121.028 145.126 121.199C144.321 121.899 143.434 122.101 142.543 121.962C141.859 121.847 141.235 121.505 140.769 120.992C140.129 120.276 139.894 119.378 139.977 118.523C140.005 118.261 140.061 118.003 140.147 117.754C140.226 117.524 140.321 117.331 140.434 117.152C140.663 116.791 140.965 116.481 141.321 116.245C141.796 115.935 142.346 115.759 142.912 115.736C143.479 115.713 144.042 115.843 144.541 116.112C144.969 116.34 145.329 116.677 145.584 117.089H146.785V114.684H145.74V115.61C145.697 115.567 145.653 115.525 145.609 115.483C145.287 115.171 144.909 114.924 144.494 114.755C143.818 114.484 142.988 114.396 142.174 114.562C141.898 114.619 141.627 114.703 141.368 114.814C140.483 115.19 139.747 115.848 139.274 116.685C138.629 117.833 138.527 119.16 138.987 120.458C139.119 120.817 139.299 121.159 139.52 121.472C139.961 122.109 140.626 122.607 141.234 122.893C141.846 123.183 142.392 123.284 142.977 123.301C143.555 123.317 144.217 123.187 144.877 122.873C145.203 122.716 145.509 122.517 145.786 122.283C146.346 121.816 146.774 121.189 146.988 120.616V120.616ZM190.836 121.983H188.276V119.348H191.065V118.347H188.276V115.824H190.836V117.054H192.083V114.684H186.055V115.747H187.033V122.033H186.055V123.096H192.083V120.726H190.836V121.983ZM169.849 115.747L169.846 114.685H166.758V115.747H167.628C167.626 117.281 167.63 118.815 167.625 120.349C167.617 120.558 167.582 120.873 167.47 121.154C167.412 121.296 167.332 121.431 167.234 121.55C167.088 121.73 166.902 121.875 166.691 121.972C166.481 122.07 166.25 122.118 166.018 122.113C165.684 122.116 165.358 122.013 165.087 121.819C164.952 121.723 164.834 121.605 164.737 121.472C164.457 121.097 164.406 120.637 164.407 120.211V115.749H165.278V114.686H162.19L162.186 115.749H163.163C163.165 117.352 163.161 118.954 163.166 120.558C163.179 121.06 163.293 121.593 163.609 122.084C163.699 122.225 163.812 122.369 163.938 122.499C164.288 122.86 164.737 123.11 165.228 123.218C165.821 123.357 166.441 123.336 167.024 123.158C167.614 122.971 168.118 122.58 168.447 122.056C168.761 121.566 168.872 120.974 168.872 120.416V115.749H169.849V115.747V115.747ZM180.445 122.033L178.946 120.069C179.501 120.019 180.088 119.9 180.685 119.114C181.209 118.382 181.299 117.594 181.127 116.795C181.071 116.552 180.983 116.317 180.866 116.097C180.743 115.866 180.586 115.654 180.401 115.468C180.213 115.28 179.997 115.122 179.761 115.001C179.29 114.751 178.747 114.685 178.231 114.685H174.431V115.747H175.414V122.033H174.431V123.096H177.482V122.033H176.646V115.83C177.238 115.833 177.828 115.817 178.421 115.841C178.782 115.877 179.188 115.921 179.613 116.452C179.774 116.666 179.885 116.912 179.939 117.174C179.993 117.436 179.987 117.706 179.923 117.966C179.825 118.392 179.566 118.764 179.201 119.005C178.812 119.267 178.33 119.312 177.883 119.314L177.001 119.308L179.664 123.098H181.463V122.034H180.445V122.033V122.033ZM198.365 123.096V122.475C198.465 122.613 198.583 122.739 198.714 122.847C199.228 123.269 199.806 123.355 200.379 123.307C200.998 123.255 201.578 122.977 202.007 122.526C202.368 122.148 202.602 121.666 202.675 121.147C202.733 120.736 202.693 120.317 202.557 119.924C202.505 119.77 202.433 119.623 202.343 119.487C201.796 118.722 201.117 118.519 200.488 118.338C200.135 118.244 199.783 118.173 199.459 118.055C199.245 117.976 198.924 117.833 198.756 117.575C198.501 117.165 198.45 116.741 198.685 116.272C198.887 115.903 199.177 115.756 199.445 115.668C199.899 115.568 200.36 115.517 200.868 116.023C201.113 116.289 201.192 116.573 201.202 116.861H202.326V114.683H201.357V115.307C201.214 115.069 200.917 114.82 200.676 114.722C200.411 114.609 200.126 114.548 199.838 114.54C199.327 114.533 198.825 114.669 198.389 114.934C198.257 115.016 198.133 115.11 198.019 115.216C197.387 115.84 197.225 116.537 197.321 117.249C197.376 117.593 197.497 117.924 197.754 118.256C198.067 118.657 198.421 118.861 198.78 119.029C199.467 119.349 200.164 119.353 200.894 119.765C201.08 119.878 201.32 120.152 201.387 120.396C201.499 120.725 201.485 121.112 201.304 121.474C201.225 121.627 201.117 121.763 200.987 121.876C200.439 122.311 199.767 122.357 199.102 121.95C198.616 121.58 198.527 121.139 198.507 120.712H197.363V123.095H198.365V123.096V123.096ZM139.831 71.6793C139.813 72.1148 139.758 72.549 139.67 72.9759L180.72 72.9568C179.835 71.8247 179.223 70.5044 178.93 69.0978H175.812L175.461 69.5801L174.886 69.0978L150.508 69.0932L149.562 71.4236L147.63 71.4296L148.66 69.0939H139.518C139.762 69.9329 139.868 70.8062 139.831 71.6793V71.6793ZM184.412 65.0919L183.058 68.4574H185.528L184.412 65.0919ZM185.688 69.1005H182.817L181.511 72.9568H186.994L185.688 69.1005ZM194.805 92.1601L193.841 88.6002L184.31 88.6035C183.8 89.613 183.087 90.5068 182.217 91.2291C181.783 91.5885 181.313 91.9024 180.814 92.166L194.805 92.1601V92.1601Z" fill="black"/>
<path fill-rule="evenodd" clip-rule="evenodd" d="M172.909 47.5537C172.876 47.5973 172.835 47.6348 172.789 47.6644C177.804 48.6944 182.597 50.6031 186.948 53.3023C191.293 56.0102 195.122 59.4706 198.254 63.5213C201.383 67.5743 203.765 72.1522 205.289 77.0405C206.804 81.9313 207.441 87.0513 207.173 92.1641H207.834C208.197 86.965 207.618 81.6967 206.114 76.7071C204.61 71.7176 202.18 67.006 198.992 62.8815C195.804 58.757 191.856 55.2203 187.406 52.5077C182.956 49.7952 178.004 47.9082 172.881 46.9502C173.027 47.1261 173.062 47.3264 172.909 47.5537ZM168.349 38.4508L164.085 47.0128C164.025 47.1314 163.998 47.2678 164.16 47.4226C164.222 47.472 164.298 47.4951 164.371 47.4924H172.213C172.306 47.4858 172.388 47.4944 172.504 47.3317C172.534 47.2814 172.549 47.2238 172.549 47.1653C172.548 47.1067 172.532 47.0494 172.501 46.9996L168.349 38.4508V38.4508ZM168.349 35.6816L165.337 36.4855L168.351 37.0573L168.349 35.6816V35.6816ZM164.143 45.6865C160.01 45.4394 155.841 45.7682 151.8 46.6649C147.759 47.5616 143.842 49.0276 140.24 51.0384C136.637 53.05 133.348 55.6057 131.031 57.6791C128.715 59.7519 127.371 61.3431 126.125 63.0034C124.881 64.6644 123.735 66.3946 122.738 68.2058C121.74 70.0164 120.891 71.9073 120.284 73.2231C119.677 74.5388 119.313 75.282 119.006 76.039C118.699 76.7961 118.45 77.5689 118.138 78.3629C117.812 79.1827 117.446 79.9864 117.043 80.771L118.517 81.4661C118.839 79.8132 119.271 78.1835 119.81 76.5879C120.078 75.7893 120.369 74.9987 120.943 73.6849C121.517 72.3705 122.374 70.5336 123.365 68.7698C124.356 67.0067 125.48 65.3167 126.701 63.6939C127.92 62.0718 129.235 60.5162 131.494 58.4816C133.753 56.4471 136.958 53.9335 140.467 51.9391C143.976 49.9447 147.788 48.4695 151.729 47.5372C155.676 46.6056 159.732 46.2148 163.785 46.3757L164.143 45.6865V45.6865ZM177.198 60.3699L176.368 62.6601H178.131L177.198 60.3699ZM153.705 68.495L152.24 63.8599L150.688 68.4931L153.705 68.495ZM175.81 68.4641H179.009V66.8565L179.659 66.0764L178.327 63.2992H176.151L175.13 66.0737L175.806 66.8538C175.808 67.3908 175.813 67.9278 175.81 68.4641ZM155.272 68.5095H174.624C173.752 66.8889 173.18 65.124 172.936 63.2999L155.326 63.2933C155.802 65.002 155.784 66.8111 155.272 68.5095V68.5095ZM128.62 91.6831C128.726 91.776 128.813 91.8887 128.877 92.0139L153.041 92.0297L153.029 88.487L128.682 88.5001L127.844 91.4084C128.129 91.3971 128.406 91.4955 128.62 91.6831V91.6831ZM141.179 83.5916H128.617L128.626 87.0849H153.035C153.149 86.4754 153.329 85.864 153.586 85.2552C150.811 84.3794 147.883 84.0972 144.991 84.427C144.93 84.911 144.691 85.3547 144.32 85.6716C143.739 86.1539 143.007 86.2804 142.283 85.9872C141.835 85.7966 141.473 85.4456 141.269 85.0027C141.064 84.5598 141.033 84.0567 141.179 83.5916V83.5916ZM177.823 83.5764L168.305 83.5679C169.197 84.6122 169.897 85.8063 170.373 87.0948L172.344 87.0856C172.811 86.5183 173.338 85.9997 173.911 85.5405C175.063 84.619 176.396 83.9499 177.823 83.5764V83.5764ZM147.025 81.3976C150.025 80.9093 153.098 81.1354 155.995 82.0578C157.008 81.4009 158.058 80.854 159.096 80.6287C159.456 80.5413 159.821 80.4735 160.189 80.4258C160.557 80.3777 160.927 80.3474 161.483 80.3678C162.039 80.3882 162.781 80.4594 163.501 80.6234C164.221 80.7875 164.921 81.0451 165.583 81.3798C166.244 81.7165 166.862 82.1296 167.427 82.6106H196.116L192.68 78.7575L129.669 78.6699L126.8 82.627L142.669 82.6395C144.068 82.0573 145.529 81.6405 147.025 81.3976V81.3976ZM174.558 103.492C174.584 103.816 174.717 104.122 174.935 104.362C175.097 104.543 175.302 104.68 175.531 104.761C175.759 104.842 176.005 104.865 176.245 104.827C176.528 104.772 176.796 104.657 177.031 104.489C177.337 104.261 177.445 103.989 177.472 103.713C177.515 102.965 177.541 102.218 177.544 101.47C177.547 100.722 177.531 99.9736 177.512 99.345C177.492 98.7171 177.469 98.2085 177.443 97.7012C177.417 97.1938 177.386 96.6852 177.365 96.3591C177.353 96.1536 177.333 95.9487 177.304 95.745C177.262 95.4646 177.197 95.188 177.11 94.9181C177.015 94.6137 176.845 94.3382 176.615 94.1176C176.464 93.955 176.255 93.8587 176.033 93.8499C175.811 93.841 175.595 93.9202 175.431 94.0702C175.24 94.2375 175.182 94.4793 175.11 94.6948C175.029 94.9629 174.976 95.2387 174.951 95.5177C174.929 95.7167 174.906 95.9868 174.888 96.2576C174.869 96.5277 174.856 96.7985 174.839 97.1154C174.807 97.7565 174.752 98.5254 174.655 99.237C174.443 100.645 174.411 102.075 174.558 103.492V103.492ZM197.381 97.0621C197.083 95.9863 196.792 94.9086 196.507 93.829L197.381 97.0621ZM193.844 83.5685L181.942 83.5771C182.355 83.6549 182.757 83.8011 183.122 84.008C183.674 84.321 184.14 84.766 184.478 85.3033C184.816 85.8405 185.015 86.4531 185.058 87.0862L193.845 87.0954V83.5685H193.844Z" fill="black"/>
<path fill-rule="evenodd" clip-rule="evenodd" d="M197.38 97.063L197.658 98.2424C197.785 98.7886 197.914 99.3348 197.847 99.4257C197.78 99.5166 197.517 99.1516 197.257 98.7859C196.992 98.4696 196.732 98.1484 196.479 97.8227C196.074 97.3087 195.447 96.5063 195.074 96.0319C194.699 95.5588 194.577 95.4139 194.45 95.2735C194.194 94.9932 193.918 94.7319 193.625 94.4914C193.466 94.3716 193.278 94.2975 193.08 94.2772C192.882 94.2569 192.683 94.2911 192.503 94.3761C192.384 94.4321 192.275 94.5092 192.183 94.6035C192.091 94.6985 192.017 94.8086 191.963 94.9289C191.472 95.971 191.148 97.0835 191.001 98.2259L190.63 100.334C190.387 101.409 190.406 102.536 190.792 103.657C190.846 103.77 190.92 103.884 191.034 103.992C191.246 104.184 191.52 104.297 191.807 104.308C192.094 104.32 192.376 104.23 192.604 104.056C192.967 103.778 193.06 103.415 193.119 103.062C193.316 101.551 193.487 100.036 193.671 98.5243C194.363 100.003 195.228 101.394 196.25 102.668C196.644 103.109 197.034 103.515 197.427 103.672C198.014 103.907 198.616 103.806 199.277 103.366C199.414 103.269 199.541 103.157 199.656 103.033C199.884 102.785 200.084 102.51 200.252 102.217C200.789 101.295 200.873 100.28 200.835 99.286C200.809 98.614 200.718 97.9461 200.563 97.2916C200.421 96.6973 200.232 96.1152 199.997 95.5509C199.763 94.9867 199.483 94.4424 199.161 93.9235C198.84 93.4037 198.477 92.9107 198.077 92.4496C197.728 92.0708 197.353 91.8909 196.959 91.9225C196.861 91.9357 196.767 91.968 196.682 92.0181C196.363 92.2184 196.283 92.4931 196.306 92.7646C196.349 93.1217 196.416 93.4761 196.506 93.8293L197.38 97.063V97.063ZM201.579 95.7927C201.908 96.1712 202.361 96.4221 202.856 96.5016L202.232 97.8741C202.128 97.902 202.03 97.947 201.94 98.0071C201.511 98.33 201.436 98.7266 201.565 99.1457C201.601 99.2465 201.654 99.342 201.719 99.4263C201.301 100.156 200.928 100.902 200.813 101.63C200.72 102.216 200.948 102.845 201.198 103.441C201.303 103.683 201.427 103.917 201.55 104.151C201.754 104.515 202.066 104.807 202.443 104.986C203.25 105.329 204.183 105.257 205.103 104.946C205.773 104.687 206.431 104.401 207.077 104.088C207.723 103.775 208.356 103.436 208.711 103.234C209.067 103.033 209.146 102.97 209.213 102.896C209.532 102.508 209.515 102.049 209.255 101.566C209.184 101.449 209.095 101.343 208.992 101.253C208.469 100.802 207.844 100.923 207.253 100.993C206.617 101.126 206.004 101.295 205.38 101.446C204.732 101.679 204.083 101.913 203.956 101.657C203.827 101.401 204.218 100.655 204.609 99.9099C204.823 99.9435 205.038 99.964 205.253 99.9633C205.963 99.9626 206.674 99.9738 207.385 99.9607C207.398 99.958 207.412 99.9554 207.508 99.929C207.719 99.8724 208.16 99.7492 208.499 99.6444C208.677 99.6016 208.917 99.4099 208.998 99.2366C209.082 99.0586 209.115 98.8611 209.094 98.6655C209.073 98.47 208.999 98.284 208.88 98.1277C208.635 97.8068 208.306 97.7311 207.99 97.679C207.23 97.6178 206.467 97.598 205.703 97.5578L205.775 96.7817C206.385 96.8166 206.998 96.8054 207.61 96.7428C208.49 96.6519 209.312 96.4726 210.137 96.3132C210.315 96.2763 210.499 96.1986 210.672 96.049C210.997 95.7499 211.072 95.456 210.894 95.1016C210.735 94.8284 210.554 94.5688 210.353 94.3254C210.04 93.9789 209.653 93.7078 209.22 93.5326C208.787 93.3575 208.321 93.2827 207.855 93.3141C206.195 93.4004 204.585 93.4122 202.896 93.9176C202.491 94.0381 202.091 94.1818 201.703 94.3465C201.545 94.4175 201.419 94.5445 201.349 94.7029C201.229 95.0166 201.256 95.3987 201.579 95.7927V95.7927ZM181.882 96.7052C184.392 96.4101 186.897 96.1333 189.409 95.8191C189.657 95.7677 189.968 95.6972 190.285 95.4079C190.625 95.0844 190.696 94.811 190.595 94.4941C190.555 94.3603 190.413 94.1778 190.195 93.9927C190.087 93.9016 189.968 93.8237 189.84 93.7608C189.699 93.6925 189.55 93.6401 189.396 93.6046C188.65 93.4295 187.885 93.3458 187.119 93.3556C186.519 93.3536 185.92 93.3758 185.322 93.4221C183.982 93.5379 182.661 93.814 181.386 94.2444C180.943 94.4027 180.52 94.6142 180.127 94.8742C179.938 94.9983 179.757 95.1345 179.586 95.2821C179.06 95.7439 178.858 96.1768 178.728 96.6558C178.63 97.1362 178.721 97.6359 178.982 98.0506C179.112 98.2549 179.281 98.4354 179.478 98.5764C179.86 98.8571 180.335 98.9388 180.78 99.0198C181.658 99.1786 182.551 98.9915 183.434 98.9948C184.243 99.002 185.068 98.9882 185.887 99.1575C186.622 99.3076 187.328 99.579 187.975 99.9607C188.204 100.125 188.241 100.33 188.154 100.554C188.085 100.718 187.706 101.019 187.419 101.198C187.304 101.27 187.185 101.336 187.063 101.394C185.167 102.232 183.15 102.275 181.157 101.61C181.098 101.578 181.041 101.55 180.981 101.433C180.932 101.301 180.9 101.151 181.104 100.979C181.3 100.879 181.516 100.837 181.727 100.822C182.112 100.805 182.632 100.9 183.117 101.128C183.904 101.473 184.773 101.591 185.624 101.467C186.047 101.405 186.46 101.284 186.85 101.108C186.956 101.059 187.042 100.974 187.094 100.869C187.146 100.764 187.163 100.645 187.143 100.53C187.111 100.365 186.96 100.117 186.667 99.8704C186.359 99.6266 185.958 99.4725 185.566 99.3736C185.381 99.3296 185.192 99.299 185.002 99.282C184.644 99.2442 184.284 99.2181 183.924 99.2036C183.159 99.1756 182.393 99.208 181.633 99.3005C181.35 99.3354 181.185 99.3697 181.024 99.4171C180.863 99.4638 180.705 99.523 180.553 99.5943C180.405 99.6624 180.263 99.7417 180.128 99.8315C179.521 100.266 179.343 100.702 179.288 101.175C179.278 101.315 179.289 101.457 179.32 101.594C179.351 101.732 179.403 101.864 179.517 102.06C179.631 102.255 179.808 102.513 180.013 102.747C180.218 102.98 180.453 103.19 180.707 103.371C180.995 103.574 181.308 103.74 181.638 103.864C182.042 104.023 182.576 104.189 183.122 104.305C183.666 104.422 184.222 104.489 184.778 104.504C185.336 104.519 185.892 104.482 186.292 104.436C186.691 104.39 186.93 104.334 187.167 104.268C187.629 104.141 188.078 103.97 188.508 103.757C188.696 103.661 188.848 103.571 188.993 103.468C189.139 103.368 189.278 103.257 189.409 103.137C189.832 102.746 190.062 102.383 190.201 102.006C190.251 101.871 190.292 101.732 190.32 101.496C190.382 101.025 190.365 100.258 190.116 99.6279C190.004 99.3205 189.852 99.0294 189.662 98.7622C189.486 98.5115 189.273 98.2885 189.031 98.1007C188.55 97.7321 187.973 97.5091 187.37 97.4583C186.067 97.3147 184.759 97.2251 183.45 97.0083C182.925 96.9198 182.402 96.8187 181.882 96.7052V96.7052ZM133.355 99.1371C133.451 98.4795 133.571 97.7284 133.753 96.982C133.847 96.5985 133.958 96.2203 134.061 95.8823C134.164 95.5443 134.256 95.2472 134.34 94.9474C134.424 94.6483 134.5 94.3465 134.545 94.1442C134.632 93.7627 134.625 93.6613 134.623 93.4353C134.618 93.2495 134.589 93.0479 134.463 92.8601C134.178 92.4621 133.809 92.4068 133.439 92.4562C133.156 92.5004 132.93 92.7514 132.741 93.0018C132.665 93.1011 132.593 93.2031 132.524 93.3075C132.429 93.4515 132.344 93.6019 132.269 93.7575C132.149 93.9966 131.976 94.3676 131.817 94.7451C131.356 95.8349 131.014 97.0492 130.784 98.1699C130.713 98.5388 130.659 98.9104 130.622 99.2834C130.551 100.003 130.545 100.699 130.554 101.359C130.558 101.676 130.562 101.995 130.591 102.273C130.62 102.551 130.673 102.788 130.761 103.013C130.848 103.237 130.97 103.449 131.12 103.637C131.411 103.99 131.744 104.241 132.016 104.369C132.482 104.589 132.897 104.619 133.382 104.565C134.031 104.496 134.657 104.151 135.304 103.716C135.454 103.613 135.6 103.505 135.815 103.335C136.366 102.895 136.903 102.438 137.424 101.964C137.405 102.47 137.409 102.977 137.436 103.482C137.464 103.988 137.515 104.491 137.561 104.838C137.607 105.185 137.648 105.374 137.702 105.56C137.82 105.954 137.956 106.286 138.189 106.646C138.313 106.835 138.473 107.042 138.665 107.212C138.857 107.383 139.082 107.517 139.324 107.607C139.566 107.696 139.823 107.74 139.997 107.752C140.171 107.764 140.261 107.743 140.345 107.71C140.493 107.646 140.629 107.565 140.756 107.352C140.866 107.162 140.945 106.911 140.955 106.681C140.96 106.561 140.949 106.441 140.945 106.215C140.942 105.988 140.946 105.655 140.945 105.323C140.944 104.989 140.937 104.656 140.937 104.144C140.937 103.633 140.944 102.942 140.985 102.253C141.067 100.891 141.279 99.5199 141.612 98.162C142.324 97.9788 143.035 97.7917 143.421 97.6869C143.808 97.5835 143.869 97.5624 143.93 97.5367C143.991 97.511 144.049 97.4827 144.106 97.4497C144.222 97.3858 144.418 97.2244 144.621 97.0182C145.411 96.192 145.601 95.2887 145.198 94.3458C145.084 94.0558 144.935 93.7809 144.754 93.5275C144.666 93.4066 144.564 93.2967 144.45 93.2001C144.336 93.1046 144.21 93.0255 144.074 92.9649C143.921 92.8958 143.758 92.849 143.591 92.8258C143.188 92.7573 142.585 92.7573 142.075 92.9649C141.826 93.0604 141.592 93.1915 141.225 93.459C140.762 93.8032 140.316 94.1695 139.889 94.5567C139.064 94.4866 138.256 94.289 137.492 93.9709C137.332 93.9046 137.182 93.8144 137.049 93.7034C136.934 93.605 136.837 93.487 136.762 93.3549C136.69 93.2225 136.644 93.0749 136.598 92.9826C136.501 92.7982 136.406 92.7909 136.303 92.7474C136.186 92.7084 136.058 92.7105 135.942 92.7534C135.77 92.8225 135.588 92.8792 135.417 93.1539C135.323 93.3035 135.216 93.5328 135.168 93.7054C135.12 93.878 135.13 93.9933 135.149 94.1778C135.168 94.363 135.195 94.6186 135.269 94.8604C135.425 95.348 135.697 95.7156 136.24 96.0945C136.511 96.2869 136.862 96.5016 137.216 96.7105C137.571 96.918 137.928 97.119 138.292 97.3107C138.036 98.2063 137.834 99.1165 137.689 100.036L136.644 99.9376L134.207 100.755C133.93 100.879 133.616 100.894 133.301 100.742C133.083 100.592 133.047 100.389 133.2 100.173L133.234 100.066C133.268 99.761 133.309 99.458 133.355 99.1371V99.1371ZM110.575 91.2643L110.559 91.2637L110.997 91.4409C110.869 91.3557 110.726 91.2958 110.575 91.2643V91.2643Z" fill="black"/>
<path fill-rule="evenodd" clip-rule="evenodd" d="M130.421 101.688C130.416 101.343 130.407 100.998 130.396 100.652C130.392 100.488 130.382 100.324 130.365 100.161C130.352 100.042 130.334 99.925 130.166 99.0329C129.944 97.8531 129.716 96.6744 129.483 95.4967C129.287 94.517 129.213 94.2238 129.127 93.9339C128.956 93.354 128.736 92.7897 128.469 92.2472C128.416 92.165 128.348 92.0933 128.269 92.0357C128.189 91.9792 128.1 91.9377 128.005 91.9132C127.811 91.8644 127.524 91.898 127.235 92.0054C127.082 92.066 126.94 92.1525 126.816 92.2611C126.528 92.5042 126.364 92.9048 126.093 93.2256C125.946 93.4141 125.792 93.5959 125.616 93.8015C125.424 94.0229 125.238 94.2495 125.058 94.4808C124.874 94.7213 124.702 94.9723 124.446 95.3742C124.189 95.7761 123.849 96.3295 123.528 96.8949C123.207 97.4594 122.905 98.0345 122.622 98.6191L121.853 98.5545C122.277 97.2935 122.562 95.9897 122.703 94.6666C122.845 93.3232 122.848 91.8993 122.655 90.4512C122.555 89.7146 122.396 88.9852 122.182 88.2736C121.967 87.562 121.695 86.8676 121.479 86.3721C121.32 85.9991 121.136 85.6373 120.929 85.289C120.571 84.6872 120.155 84.1218 119.687 83.601C119.416 83.2913 119.086 82.9335 118.755 82.5777C118.424 82.222 118.09 81.8682 117.833 81.6178C117.575 81.3674 117.393 81.2198 117.196 81.0966C116.999 80.9734 116.788 80.8733 116.566 80.8008C116.37 80.7377 116.169 80.6921 115.965 80.6644C115.699 80.6308 115.627 80.6697 115.477 80.7527C115.261 80.8996 115.192 81.0894 115.258 81.2884C115.273 81.3312 115.297 81.372 115.438 81.5433C115.579 81.7153 115.839 82.0171 116.094 82.3234C116.585 82.9098 117.008 83.4646 117.297 83.9778C117.439 84.2242 117.571 84.4759 117.732 84.8106C117.892 85.144 118.08 85.5598 118.265 85.9768C118.623 86.7866 118.954 87.5541 119.161 88.2842C119.264 88.6399 119.344 89.001 119.403 89.366C119.463 89.731 119.501 90.0987 119.523 90.5052C119.585 91.757 119.521 93.1492 119.312 94.4676C119.104 95.8104 118.688 97.1127 118.08 98.3279C117.145 100.14 115.686 101.629 113.893 102.601C113.28 102.942 112.592 103.124 111.891 103.132C111.563 103.14 111.237 103.08 110.933 102.956C110.787 102.898 110.648 102.827 110.516 102.742C110.304 102.606 110.131 102.419 110.01 102.198C109.89 101.978 109.827 101.731 109.827 101.479C110.513 100.907 111.153 100.282 111.741 99.6094C112.311 98.9558 112.795 98.318 113.162 97.725C113.343 97.4358 113.512 97.138 113.671 96.8362C113.831 96.5338 113.983 96.2261 114.133 95.7939C114.283 95.3604 114.431 94.8023 114.499 94.233C114.566 93.6638 114.551 93.084 114.455 92.5187C114.365 92.0098 114.224 91.5114 114.034 91.031C113.884 90.66 113.763 90.4676 113.618 90.2963C113.472 90.1245 113.303 89.9745 113.114 89.8509C112.502 89.4609 111.781 89.3752 111.082 89.4385C110.843 89.4616 110.606 89.507 110.2 89.6539C109.793 89.8022 109.218 90.0519 108.697 90.3892C108.174 90.7279 107.71 91.1489 107.322 91.6358C106.967 92.0908 106.666 92.5848 106.424 93.1084C106.219 93.5478 106.115 93.8792 106.02 94.212C105.746 95.1699 105.525 96.2083 105.502 97.1861C105.494 97.5036 105.505 97.8225 105.539 98.1381C105.572 98.4544 105.628 98.768 105.716 99.3597C105.804 99.95 105.925 100.818 106.042 101.686C105.828 101.924 105.545 102.089 105.232 102.157C105.078 102.192 104.916 102.203 104.657 102.164C104.396 102.124 104.039 102.034 103.707 101.881C103.376 101.728 103.072 101.514 102.812 101.256C102.553 100.996 102.339 100.695 102.18 100.364C101.837 99.6799 101.838 98.9004 101.819 98.1579C101.817 97.7723 101.833 97.3869 101.868 97.0029C101.902 96.6194 101.955 96.2373 102.051 95.7339C102.147 95.2306 102.285 94.6066 102.441 93.9866C102.598 93.3666 102.771 92.7506 103.011 92.0548C103.25 91.3591 103.556 90.5843 103.923 89.8378C104.289 89.0913 104.716 88.3738 105.199 87.6978C105.631 87.1044 106.092 86.5331 106.581 85.986C106.939 85.5841 107.113 85.4148 107.287 85.2455L107.763 84.7895C107.932 84.6347 108.089 84.4664 108.231 84.2862C108.523 83.9198 108.642 83.6827 108.435 83.3453C108.301 83.1562 108.118 83.12 107.944 83.1068C107.881 83.1042 107.817 83.1094 107.67 83.151C107.236 83.2812 106.819 83.4616 106.427 83.6886C105.933 83.9844 105.479 84.3422 105.018 84.6907C104.763 84.889 104.512 85.0937 104.267 85.3048C103.858 85.6551 103.477 86.0381 103.13 86.4499C102.96 86.6508 102.797 86.8577 102.539 87.232C102.209 87.7103 101.896 88.2009 101.603 88.7025C101.278 89.2599 100.983 89.8345 100.719 90.4222C100.238 91.494 99.8449 92.6032 99.5444 93.7389C99.4156 94.2167 99.2985 94.6976 99.1933 95.1811C99.0458 95.8476 98.9482 96.5242 98.9014 97.2052C98.8091 98.459 98.8869 99.6917 99.3408 100.978C99.4509 101.275 99.5859 101.561 99.7533 101.827C99.9206 102.093 100.12 102.34 100.346 102.558C100.808 103.001 101.325 103.302 101.813 103.525C102.061 103.64 102.316 103.742 102.575 103.832C103.308 104.085 103.981 104.218 104.661 104.086C105.257 103.968 105.752 103.71 106.256 103.604C106.421 103.564 106.586 103.53 106.754 103.501C106.946 103.725 107.142 103.944 107.339 104.163C107.537 104.382 107.736 104.599 108.014 104.861C108.292 105.122 108.65 105.427 109.043 105.677C109.437 105.926 109.867 106.12 110.314 106.259C110.762 106.398 111.227 106.482 111.859 106.489C112.492 106.495 113.292 106.423 114.071 106.254C114.851 106.085 115.605 105.815 116.315 105.452C117.023 105.089 117.68 104.631 118.134 104.281C118.588 103.93 118.84 103.686 119.086 103.437C119.561 102.963 120.006 102.46 120.418 101.93C120.744 101.509 120.894 101.257 121.079 100.922C121.168 100.758 121.251 100.589 121.326 100.417L122.031 100.624L121.344 102.836C121.253 103.123 121.221 103.424 121.249 103.724C121.277 104.023 121.365 104.313 121.508 104.577C121.599 104.741 121.709 104.88 121.84 104.993C122.112 105.225 122.471 105.335 122.806 105.306C122.979 105.291 123.148 105.241 123.271 105.187C123.394 105.133 123.471 105.075 123.543 105.011C123.879 104.718 123.961 104.385 124.103 104.057C124.364 103.373 124.643 102.685 124.886 102.006C124.916 101.913 124.942 101.821 124.968 101.728L127.82 101.674C127.853 102.016 127.886 102.357 127.907 102.553C127.928 102.75 127.935 102.8 127.945 102.849C127.968 102.97 128.007 103.088 128.06 103.199C128.107 103.305 128.183 103.468 128.264 103.63C128.347 103.791 128.434 103.949 128.511 104.069C128.68 104.335 128.812 104.436 128.979 104.54C129.333 104.731 129.69 104.835 130.072 104.325C130.185 104.161 130.234 104.047 130.282 103.889C130.341 103.695 130.392 103.443 130.414 103.215C130.425 103.098 130.43 102.981 130.431 102.726C130.433 102.469 130.429 102.079 130.421 101.688V101.688ZM109.139 98.8741C109.046 98.5154 108.976 98.1509 108.931 97.783C108.838 97.0303 108.845 96.2687 108.952 95.5178C109.006 95.1034 109.087 94.6448 109.184 94.1889C109.28 93.7343 109.393 93.2823 109.473 92.9865C109.595 92.503 109.78 92.0378 110.024 91.6029C110.059 91.5416 110.102 91.4849 110.153 91.4362C110.279 91.334 110.37 91.2425 110.559 91.2616L110.526 91.2477C110.615 91.2319 110.706 91.2414 110.789 91.2751C110.873 91.3088 110.945 91.3653 110.997 91.4381C111.128 91.618 111.214 91.7985 111.265 91.9942C111.361 92.5286 111.364 93.0043 111.339 93.5228C111.328 93.7284 111.31 93.9339 111.268 94.2403C111.216 94.6149 111.153 94.9879 111.08 95.359C111.006 95.75 110.911 96.137 110.798 96.5186C110.703 96.8415 110.575 97.1537 110.416 97.4503C110.261 97.7319 110.074 97.9948 109.859 98.2337C109.644 98.474 109.403 98.6889 109.139 98.8741V98.8741ZM127.273 98.6059C126.958 98.8405 126.667 98.7851 126.442 98.4985L127.101 97.1854L127.389 98.4583C127.359 98.5138 127.32 98.5637 127.273 98.6059V98.6059Z" fill="black"/>
<path fill-rule="evenodd" clip-rule="evenodd" d="M117.813 85.8086C117.623 85.4623 117.441 85.1117 117.267 84.757C117.057 87.183 116.962 89.6109 116.984 92.0408H117.509C117.562 89.9627 117.663 87.8847 117.813 85.8086V85.8086ZM172.009 88.6028L170.774 88.5679L172.522 92.1653C172.087 91.0309 171.912 89.8137 172.009 88.6028V88.6028ZM174.278 96.1521C173.876 94.9569 173.324 93.7255 172.357 92.5369C171.209 90.9579 169.827 89.5637 168.258 88.4025C167.187 87.5212 166.055 86.7171 164.87 85.9964C164.278 85.6362 163.674 85.2967 163.059 84.9784C161.554 84.2154 159.989 83.5788 158.379 83.075C155.154 82.068 151.783 81.6073 148.405 81.7118C147.208 81.7219 146.019 81.9115 144.878 82.2744C144.503 82.397 144.141 82.5433 143.788 82.7099C143.081 83.0429 142.416 83.4571 141.805 83.944C141.431 84.2207 141.369 84.5633 141.509 84.9343C141.583 85.1392 141.823 85.3138 142.061 85.4238C142.181 85.4824 142.356 85.5299 142.557 85.5516C143.069 85.5852 143.654 85.4152 144.226 85.0726C144.355 84.9824 144.56 84.7946 144.502 84.6193C144.494 84.5409 144.384 84.4039 144.269 84.3881C144.071 84.3385 143.863 84.3518 143.673 84.4263C144.026 84.1899 144.418 84.0171 144.831 83.9157C145.037 83.8643 145.247 83.8313 145.758 83.8017C146.269 83.772 147.08 83.7463 147.891 83.7701C149.515 83.8205 151.127 84.0534 152.698 84.4645C154.074 84.8568 155.434 85.2995 156.778 85.7915C157.989 86.2372 159.187 86.7162 160.372 87.2278C161.299 87.6284 161.828 87.8873 162.346 88.168C163.382 88.7302 164.368 89.3802 165.293 90.111C165.867 90.5847 166.441 91.0584 166.984 91.5638C167.527 92.0704 168.04 92.61 168.551 93.149C169.369 94.0467 170.02 95.0828 170.474 96.2088C170.873 97.1477 170.921 98.199 170.609 99.1704C170.454 99.652 170.215 100.102 169.903 100.501C169.591 100.898 169.209 101.238 168.597 101.606C167.986 101.973 167.143 102.368 166.272 102.681C164.526 103.308 162.678 103.602 160.824 103.545C159.608 103.499 158.395 103.388 157.19 103.212L157.127 96.6588C159.528 96.8582 161.896 97.3512 164.178 98.1267C164.055 98.3845 163.872 98.6089 163.644 98.781C163.48 98.9075 163.321 99.0465 163.163 99.202C163.117 99.2636 163.088 99.3362 163.079 99.4125C163.07 99.4889 163.082 99.5662 163.112 99.6368C163.134 99.6843 163.163 99.7297 163.227 99.7877C163.29 99.8457 163.385 99.9175 163.485 99.9794C163.76 100.138 164.139 100.213 164.53 100.192C165.127 100.136 165.67 99.8338 166.249 99.2725C166.414 99.1045 166.552 98.9114 166.657 98.7019C167.028 97.9409 167.015 97.0317 166.344 96.162C166.224 96.0048 166.089 95.859 165.942 95.7265C165.794 95.595 165.635 95.4772 165.465 95.3746C164.561 94.8599 163.593 94.4676 162.585 94.2078C162.063 94.0777 161.535 93.9757 161.002 93.9021C159.768 93.721 158.525 93.6226 157.278 93.6076C157.243 92.5676 157.104 91.5337 156.866 90.5208C156.797 90.2081 156.699 89.9026 156.573 89.6083C156.49 89.4119 156.438 89.3151 156.362 89.1714C156.271 88.9863 156.029 88.7451 155.808 88.6516C155.586 88.5534 155.338 88.5231 155.062 88.7867C155.016 88.8366 154.978 88.8938 154.951 88.956C154.717 89.5248 154.538 90.1145 154.416 90.7171C154.355 91.0182 154.31 91.322 154.263 91.683C154.171 92.4144 154.062 93.3045 153.924 94.1228C152.795 94.252 151.679 94.4746 150.588 94.7882C149.811 95.0165 149.062 95.3266 148.351 95.7133C147.818 96.0005 147.327 96.3609 146.893 96.7839C146.698 96.9858 146.551 97.2296 146.465 97.4967C146.378 97.7638 146.354 98.0471 146.393 98.325C146.459 98.7658 146.665 99.1578 146.967 99.5788C147.05 99.6895 147.14 99.7956 147.312 99.9768C147.483 100.157 147.736 100.414 147.992 100.667C148.485 101.152 148.949 101.59 149.38 101.939C149.587 102.108 149.802 102.27 150.02 102.424C150.24 102.577 150.464 102.724 150.833 102.952C151.812 103.548 152.798 104.133 153.79 104.705L153.871 105.069L153.979 105.543C154.025 105.744 154.086 106.002 154.147 106.261C154.229 106.583 154.414 106.868 154.675 107.073C155.103 107.399 155.623 107.464 156.093 107.293C156.266 107.231 156.447 107.135 156.608 107.01C156.768 106.886 156.907 106.734 157.017 106.563C157.127 106.393 157.208 106.204 157.257 106.006C158.508 106.182 159.767 106.298 161.03 106.356C161.955 106.402 162.883 106.375 163.804 106.276C165.041 106.137 166.395 105.88 167.639 105.403C169.27 104.79 170.767 103.868 172.049 102.688C172.281 102.47 172.501 102.239 172.708 101.996C173.121 101.512 173.483 100.985 173.786 100.424C174.529 99.1084 174.709 97.624 174.278 96.1521V96.1521ZM151.26 101.357C150.876 101.163 150.507 100.941 150.182 100.727C149.856 100.512 149.573 100.307 149.299 100.088C148.792 99.6799 148.323 99.2272 147.896 98.7355C147.764 98.5813 147.739 98.5299 147.723 98.4759C147.699 98.395 147.698 98.3087 147.721 98.2273C147.744 98.146 147.79 98.0729 147.853 98.0167C147.894 97.9791 147.943 97.9501 148.16 97.8665C149.112 97.502 150.1 97.2424 151.109 97.0923C151.31 97.062 151.427 97.0495 151.663 97.0284C151.979 97.001 152.295 96.9779 152.611 96.9592C152.967 96.9394 153.324 96.9276 153.681 96.9243L153.682 102.173C152.84 102.017 152.024 101.742 151.26 101.357V101.357ZM184.36 86.1973C184.341 85.9903 184.281 85.7892 184.183 85.6057C184.098 85.4465 183.987 85.3019 183.856 85.1774C183.66 84.9899 183.421 84.8539 183.16 84.7814C182.898 84.7088 182.623 84.702 182.359 84.7616C182.281 84.5637 182.157 84.3874 181.997 84.248C181.836 84.1085 181.644 84.0101 181.438 83.9611C180.979 83.8435 180.507 83.7818 180.034 83.7773C179.73 83.775 179.427 83.7979 179.128 83.8458C178.695 83.9078 178.067 84.0204 177.457 84.197C176.847 84.3736 176.256 84.6141 175.69 84.9086C175.127 85.2024 174.59 85.551 174.092 85.9456C173.888 86.1126 173.695 86.2938 173.517 86.4879C172.751 87.3352 172.295 88.2694 172.284 89.1675C172.277 89.4053 172.299 89.6445 172.329 89.8402C172.388 90.2131 172.476 90.474 172.595 90.7797C172.719 91.09 172.916 91.4465 173.125 91.8352L173.428 92.3939C173.502 92.5349 173.541 92.6074 173.591 92.67C173.642 92.7331 173.705 92.7859 173.776 92.8255C173.93 92.9217 174.201 92.9401 174.477 92.9026C174.633 92.8789 174.786 92.8308 174.928 92.7596C175.07 92.6898 175.201 92.5975 175.307 92.471C175.414 92.3439 175.498 92.1824 175.601 92.1508C175.705 92.1192 175.829 92.2193 175.956 92.2885C176.083 92.3577 176.213 92.3979 176.347 92.4242C176.48 92.4513 176.615 92.4644 176.832 92.4644C177.048 92.4644 177.347 92.4506 177.604 92.4348C177.861 92.419 178.075 92.3999 178.223 92.3834C178.371 92.3669 178.454 92.3511 178.633 92.3168C179.004 92.2516 179.654 92.108 180.173 91.8899C180.699 91.6857 181.312 91.3351 181.942 90.837C182.568 90.3358 183.116 89.7453 183.569 89.0845C184.016 88.4421 184.264 87.8161 184.348 87.1513C184.388 86.8348 184.392 86.5147 184.36 86.1973V86.1973ZM175.777 87.8721C175.314 88.2942 174.879 88.747 174.476 89.2274C174.611 88.6754 174.858 88.1567 175.201 87.7032C175.543 87.2497 175.975 86.8709 176.469 86.59C177.211 86.1688 178.023 85.8842 178.865 85.7499C177.745 86.3144 176.706 87.0283 175.777 87.8721V87.8721ZM181.915 87.6501C181.874 87.8786 181.788 88.0966 181.662 88.2914C181.536 88.4862 181.372 88.6539 181.181 88.7847C180.862 88.9929 180.543 89.2017 180.213 89.3889C179.555 89.742 178.903 90.1037 178.204 90.2309C177.516 90.3677 176.807 90.3418 176.131 90.1551C177.125 88.7173 178.563 87.6452 180.225 87.1033C180.625 86.9752 181.05 86.9441 181.465 87.0123C181.536 87.0241 181.605 87.05 181.666 87.0886C181.728 87.1272 181.781 87.1776 181.823 87.2369C181.865 87.2963 181.895 87.3634 181.91 87.4343C181.926 87.5053 181.927 87.5786 181.915 87.6501V87.6501ZM222.13 97.8651C222.118 97.4655 222.054 97.0691 221.941 96.6858C221.71 95.9171 221.281 95.2226 220.697 94.6716C220.135 94.1907 219.445 94.0562 218.763 94.2598C218.544 94.3284 218.337 94.4344 217.804 94.8331C217.271 95.2317 216.413 95.9235 215.583 96.6476C214.752 97.3708 213.95 98.1258 213.177 98.9108C213.351 98.4028 213.549 97.9027 213.774 97.4151C213.998 96.9282 214.25 96.4539 214.441 96.1027C214.63 95.7515 214.757 95.5235 214.872 95.2896C214.986 95.0557 215.086 94.8146 215.151 94.644C215.275 94.3152 215.278 94.1762 215.274 93.9515C215.268 93.8461 215.252 93.742 215.23 93.6616C215.208 93.5812 215.183 93.5245 215.145 93.4758C214.897 93.1688 214.543 93.2874 214.22 93.4956C214.126 93.5653 214.038 93.6438 213.959 93.7301C213.558 94.143 213.169 94.5684 212.794 95.0057C212.181 95.7358 211.662 96.5391 211.247 97.3974C211.042 97.8263 210.865 98.2684 210.753 98.5741C210.641 98.8791 210.595 99.0471 210.559 99.2171C210.482 99.5746 210.455 99.9408 210.478 100.306C210.501 100.76 210.584 101.364 210.727 101.899C210.798 102.168 210.883 102.433 210.982 102.693C210.608 103.493 210.275 104.312 209.986 105.147C209.697 105.981 209.454 106.831 209.258 107.692C209.091 108.44 208.952 109.193 208.842 109.951C208.768 110.478 208.764 110.66 208.776 110.84C208.825 111.628 209.202 112.433 209.968 113.244C210.491 113.731 211.135 113.714 211.787 113.169C212.133 111.834 212.483 110.505 212.801 109.173L213.121 108.107C213.229 107.753 213.391 107.416 213.6 106.897C213.81 106.378 214.092 105.685 214.375 104.991C215.005 104.873 215.631 104.731 216.251 104.566C216.706 104.446 217.145 104.275 217.56 104.055C217.759 103.948 217.954 103.83 218.211 103.653C218.468 103.475 218.79 103.236 219.103 102.986C219.403 102.748 219.695 102.5 219.977 102.241C220.428 101.833 220.83 101.374 221.174 100.872C221.889 99.8431 222.178 98.8851 222.13 97.8651V97.8651ZM219.451 99.3476C219.277 99.6243 219.062 99.874 218.814 100.087C218.375 100.445 217.918 100.779 217.443 101.087C217.281 101.192 217.095 101.256 216.903 101.271C216.71 101.286 216.517 101.252 216.34 101.173C217.003 99.6762 217.948 98.3217 219.124 97.1839C219.316 97.0053 219.478 97.0192 219.63 97.0659C219.784 97.1042 219.949 97.3374 219.942 97.4823C219.971 98.1395 219.8 98.79 219.451 99.3476V99.3476ZM127.03 116.925C126.981 116.595 126.874 116.277 126.712 115.985C126.613 115.807 126.49 115.642 126.349 115.495C125.92 115.05 125.417 114.861 124.918 114.768C124.65 114.715 124.379 114.687 124.106 114.685H120.607V115.747H121.585V122.033H120.607V123.096H123.807V122.033H122.83V120.006H124.316C124.97 119.991 125.638 119.925 126.348 119.178C126.62 118.875 126.822 118.517 126.94 118.127C127.057 117.738 127.088 117.327 127.03 116.925V116.925ZM125.261 118.534C124.887 118.838 124.526 118.86 124.176 118.868H122.834V115.852H124.128C124.561 115.854 125.008 115.936 125.377 116.313C125.591 116.532 125.731 116.813 125.778 117.116C125.852 117.641 125.707 118.138 125.261 118.534V118.534Z" fill="black"/>
</svg>
