<svg width="120" height="120" viewBox="0 0 120 120" fill="none" xmlns="http://www.w3.org/2000/svg">
<mask id="path-1-inside-1" fill="white">
<path fill-rule="evenodd" clip-rule="evenodd" d="M97.3494 11.1445H66.778V41.7158H37.135V72.2869H6.57031V102.858H37.135V102.859H66.778V102.859H97.3494V11.1445Z"/>
</mask>
<path fill-rule="evenodd" clip-rule="evenodd" d="M97.3494 11.1445H66.778V41.7158H37.135V72.2869H6.57031V102.858H37.135V102.859H66.778V102.859H97.3494V11.1445Z" fill="#B5D7FC"/>
<path d="M66.778 11.1445V9.64453H65.278V11.1445H66.778ZM97.3494 11.1445H98.8494V9.64453H97.3494V11.1445ZM66.778 41.7158V43.2158H68.278V41.7158H66.778ZM37.135 41.7158V40.2158H35.635V41.7158H37.135ZM37.135 72.2869V73.7869H38.635V72.2869H37.135ZM6.57031 72.2869V70.7869H5.07031V72.2869H6.57031ZM6.57031 102.858H5.07031V104.358H6.57031V102.858ZM37.135 102.858H38.635V101.358H37.135V102.858ZM37.135 102.859H35.635V104.359H37.135V102.859ZM66.778 102.859H68.278V101.359H66.778V102.859ZM66.778 102.859H65.278V104.359H66.778V102.859ZM97.3494 102.859V104.359H98.8494V102.859H97.3494ZM66.778 12.6445H97.3494V9.64453H66.778V12.6445ZM68.278 41.7158V11.1445H65.278V41.7158H68.278ZM66.778 40.2158H37.135V43.2158H66.778V40.2158ZM35.635 41.7158V72.2869H38.635V41.7158H35.635ZM37.135 70.7869H6.57031V73.7869H37.135V70.7869ZM5.07031 72.2869V102.858H8.07031V72.2869H5.07031ZM6.57031 104.358H37.135V101.358H6.57031V104.358ZM35.635 102.858V102.859H38.635V102.858H35.635ZM37.135 104.359H66.778V101.359H37.135V104.359ZM68.278 102.859V102.859H65.278V102.859H68.278ZM97.3494 101.359H66.778V104.359H97.3494V101.359ZM95.8494 11.1445V102.859H98.8494V11.1445H95.8494Z" fill="#18181B" mask="url(#path-1-inside-1)"/>
</svg>
