<svg width="120" height="120" viewBox="0 0 120 120" fill="none" xmlns="http://www.w3.org/2000/svg">
<path d="M47.546 48.2969L65.7487 79.7958L83.9978 111.248H47.546H11.1406L29.3433 79.7958L47.546 48.2969Z" fill="#B4F5DE" stroke="#18181B" stroke-width="1.5" stroke-miterlimit="10"/>
<path d="M69.2344 111.245H25.9102L25.9102 70.8989C25.9102 49.0813 33.0148 27.8195 46.1096 10.3098L46.7597 9.42969C61.2939 27.4489 69.2344 49.8688 69.2344 72.9834L69.2344 111.245Z" fill="#B4F5DE" stroke="#18181B" stroke-width="1.5" stroke-miterlimit="10"/>
<path d="M47.551 61.7273C54.3728 61.7273 59.9029 56.2107 59.9029 49.4056C59.9029 42.6006 54.3728 37.084 47.551 37.084C40.7293 37.084 35.1992 42.6006 35.1992 49.4056C35.1992 56.2107 40.7293 61.7273 47.551 61.7273Z" fill="#B4F5DE" stroke="#18181B" stroke-width="1.5" stroke-miterlimit="10"/>
</svg>
