<svg width="215" height="64" viewBox="0 0 215 64" fill="none" xmlns="http://www.w3.org/2000/svg">
<path d="M16.1551 39.0456C12.8427 39.0456 10.4255 36.496 10.4255 32.6716C10.336 28.8473 12.8427 26.2977 16.0656 26.2977C20.0047 26.2977 20.9895 29.8489 20.9895 29.8489H28.6887C28.6887 29.8489 27.1668 19.1953 15.9761 19.1953C8.36644 19.2864 2.9054 24.8408 2.9054 32.7627C2.9054 40.5935 8.36644 46.148 16.0656 46.148C27.3458 46.148 28.8677 35.4944 28.8677 35.4944H21.1686C21.1686 35.4944 20.0943 39.0456 16.1551 39.0456Z" fill="white"/>
<path d="M44.355 19.2852C37.3721 19.2852 33.612 23.1095 33.1644 27.6623H40.4159C40.4159 27.6623 41.1321 25.3859 44.355 25.3859C46.8617 25.3859 48.2941 26.9339 48.2941 29.2103V29.7566H42.5645C35.5815 29.7566 32.0901 33.3078 32.0901 38.1338C32.0901 42.6866 35.5815 46.2378 41.5797 46.2378C46.3246 46.2378 48.5627 43.415 48.5627 43.415H48.8313L49.3684 45.6914H55.8143V29.1192C55.8143 23.3827 51.7856 19.2852 44.355 19.2852ZM43.0121 40.2281C40.774 40.2281 39.5207 38.9533 39.5207 37.4053C39.5207 35.8574 40.774 34.5826 43.4598 34.5826H48.2046V35.1289H48.2941C48.2941 38.2248 46.3246 40.2281 43.0121 40.2281Z" fill="white"/>
<path d="M91.444 19.2852C83.7448 19.2852 78.2837 24.8396 78.2837 32.6704C78.2837 40.5012 83.7448 46.0557 91.444 46.0557C100.934 46.0557 103.619 37.6785 103.619 37.6785H96.0993C96.0993 37.6785 94.5773 39.9549 91.3544 39.9549C88.042 39.9549 85.8934 37.6785 85.6248 34.5826H104.067C104.067 34.5826 104.336 33.8541 104.336 32.033C104.425 24.8396 98.9641 19.2852 91.444 19.2852ZM85.7143 30.2119C86.4305 26.8428 88.4896 25.2038 91.444 25.2038C94.3983 25.2038 96.3679 27.0249 97.1736 30.2119H85.7143Z" fill="white"/>
<path d="M121.167 19.2852C113.468 19.2852 108.007 24.8396 108.007 32.6704C108.007 40.5012 113.468 46.0557 121.167 46.0557C130.657 46.0557 133.342 37.6785 133.342 37.6785H125.822C125.822 37.6785 124.3 39.9549 121.077 39.9549C117.765 39.9549 115.616 37.6785 115.348 34.5826H133.79C133.79 34.5826 134.059 33.8541 134.059 32.033C134.059 24.8396 128.597 19.2852 121.167 19.2852ZM115.437 30.2119C116.153 26.8428 118.213 25.2038 121.167 25.2038C124.121 25.2038 126.091 27.0249 126.896 30.2119H115.437Z" fill="white"/>
<path d="M165.752 19.7383H157.695V45.5982H165.752V19.7383Z" fill="white"/>
<path d="M185.09 29.9387L181.33 29.3924C179.092 29.1192 178.376 28.3908 178.376 27.3892C178.376 26.1144 179.629 25.1127 182.136 25.1127C185.627 25.1127 186.075 27.3892 186.075 27.3892H193.326C193.326 27.3892 192.789 19.2852 182.136 19.2852C174.884 19.2852 171.124 23.1095 171.124 27.3892C171.124 31.7598 173.631 34.1273 179.629 35.0379L183.389 35.5842C185.627 35.8574 186.343 36.5858 186.343 38.1338C186.343 39.4086 185.09 40.6833 182.404 40.6833C178.107 40.6833 178.107 37.6785 178.107 37.6785H170.856C170.856 37.6785 170.856 46.3288 182.404 46.3288C189.924 46.3288 193.595 42.5045 193.595 38.2248C193.595 33.3989 190.909 30.6672 185.09 29.9387Z" fill="white"/>
<path d="M60.5587 45.5982H68.0788V31.3935V26.8407H76.2256V19.7383H60.5587V45.5982Z" fill="white"/>
<path d="M137.013 45.5982H144.534V31.3935V26.8407H152.77V19.7383H137.013V45.5982Z" fill="white"/>
<path d="M208.902 38.5893C207.649 38.5893 207.112 38.043 207.112 36.7682V26.8431H212.752V19.7407V11.6367H204.515V19.7407H195.563V26.8431H199.502V38.5893C199.502 43.1421 202.009 45.6917 206.754 45.6917H212.752V38.5893H208.902Z" fill="white"/>
</svg>
