<svg width="80" height="80" viewBox="0 0 80 80" fill="none" xmlns="http://www.w3.org/2000/svg">
<mask id="path-1-inside-1" fill="white">
<path fill-rule="evenodd" clip-rule="evenodd" d="M61.5862 49.0896L61.5862 67.6356L6.99999 67.6356L6.99999 49.0896C11.8717 49.0162 15.7983 45.0442 15.7983 40.1551C15.7983 35.266 11.8717 31.294 6.99998 31.2207L6.99998 13.0493L25.4215 13.0493C25.421 13.0114 25.4208 12.9735 25.4208 12.9355C25.4208 8.00055 29.4213 4 34.3563 4C39.2912 4 43.2917 8.00055 43.2917 12.9355C43.2917 12.9735 43.2915 13.0114 43.291 13.0493L61.5862 13.0493L61.5862 31.2187C66.5161 31.2246 70.5107 35.2229 70.5107 40.1541C70.5107 45.0854 66.5161 49.0837 61.5862 49.0896Z"/>
</mask>
<path fill-rule="evenodd" clip-rule="evenodd" d="M61.5862 49.0896L61.5862 67.6356L6.99999 67.6356L6.99999 49.0896C11.8717 49.0162 15.7983 45.0442 15.7983 40.1551C15.7983 35.266 11.8717 31.294 6.99998 31.2207L6.99998 13.0493L25.4215 13.0493C25.421 13.0114 25.4208 12.9735 25.4208 12.9355C25.4208 8.00055 29.4213 4 34.3563 4C39.2912 4 43.2917 8.00055 43.2917 12.9355C43.2917 12.9735 43.2915 13.0114 43.291 13.0493L61.5862 13.0493L61.5862 31.2187C66.5161 31.2246 70.5107 35.2229 70.5107 40.1541C70.5107 45.0854 66.5161 49.0837 61.5862 49.0896Z" fill="white"/>
<path d="M61.5862 49.0896L61.5844 47.5896L60.0862 47.5914L60.0862 49.0896L61.5862 49.0896ZM61.5862 67.6356L61.5862 69.1356L63.0862 69.1356L63.0862 67.6356L61.5862 67.6356ZM6.99999 67.6356L5.49998 67.6356L5.49998 69.1356L6.99999 69.1356L6.99999 67.6356ZM6.99999 49.0896L6.97742 47.5897L5.49999 47.612L5.49998 49.0896L6.99999 49.0896ZM6.99998 31.2207L5.49998 31.2207L5.49998 32.6983L6.97741 32.7205L6.99998 31.2207ZM6.99998 13.0493L6.99998 11.5493L5.49998 11.5493L5.49998 13.0493L6.99998 13.0493ZM25.4215 13.0493L25.4215 14.5493L26.9403 14.5493L26.9214 13.0306L25.4215 13.0493ZM43.291 13.0493L41.7911 13.0306L41.7722 14.5493L43.291 14.5493L43.291 13.0493ZM61.5862 13.0493L63.0862 13.0493L63.0862 11.5493L61.5862 11.5493L61.5862 13.0493ZM61.5862 31.2187L60.0862 31.2187L60.0862 32.7169L61.5844 32.7187L61.5862 31.2187ZM60.0862 49.0896L60.0862 67.6356L63.0862 67.6356L63.0862 49.0896L60.0862 49.0896ZM61.5862 66.1356L6.99999 66.1356L6.99999 69.1356L61.5862 69.1356L61.5862 66.1356ZM8.49999 67.6356L8.49999 49.0896L5.49998 49.0896L5.49998 67.6356L8.49999 67.6356ZM7.02256 50.5894C12.7125 50.5037 17.2983 45.8651 17.2983 40.1551L14.2983 40.1551C14.2983 44.2234 11.0308 47.5287 6.97742 47.5897L7.02256 50.5894ZM17.2983 40.1551C17.2983 34.4451 12.7125 29.8065 7.02256 29.7208L6.97741 32.7205C11.0308 32.7815 14.2983 36.0869 14.2983 40.1551L17.2983 40.1551ZM8.49998 31.2207L8.49998 13.0493L5.49998 13.0493L5.49998 31.2207L8.49998 31.2207ZM6.99998 14.5493L25.4215 14.5493L25.4215 11.5493L6.99998 11.5493L6.99998 14.5493ZM26.9214 13.0306C26.921 12.999 26.9208 12.9673 26.9208 12.9355L23.9208 12.9355C23.9208 12.9797 23.9211 13.0239 23.9216 13.0681L26.9214 13.0306ZM26.9208 12.9355C26.9208 8.82897 30.2498 5.5 34.3563 5.5L34.3563 2.5C28.5929 2.5 23.9208 7.17212 23.9208 12.9355L26.9208 12.9355ZM34.3563 5.5C38.4628 5.5 41.7917 8.82897 41.7917 12.9355L44.7917 12.9355C44.7917 7.17212 40.1196 2.5 34.3563 2.5L34.3563 5.5ZM41.7917 12.9355C41.7917 12.9672 41.7915 12.9989 41.7911 13.0306L44.7909 13.0681C44.7915 13.024 44.7917 12.9798 44.7917 12.9355L41.7917 12.9355ZM43.291 14.5493L61.5862 14.5493L61.5862 11.5493L43.291 11.5493L43.291 14.5493ZM60.0862 13.0493L60.0862 31.2187L63.0862 31.2187L63.0862 13.0493L60.0862 13.0493ZM61.5844 32.7187C65.6867 32.7236 69.0107 36.0507 69.0107 40.1541L72.0107 40.1541C72.0107 34.395 67.3455 29.7256 61.588 29.7187L61.5844 32.7187ZM69.0107 40.1541C69.0107 44.2576 65.6867 47.5847 61.5844 47.5896L61.588 50.5896C67.3455 50.5827 72.0107 45.9132 72.0107 40.1541L69.0107 40.1541Z" fill="#18181B" mask="url(#path-1-inside-1)"/>
</svg>
