<svg width="80" height="80" viewBox="0 0 80 80" fill="none" xmlns="http://www.w3.org/2000/svg">
<mask id="path-1-inside-1" fill="white">
<path fill-rule="evenodd" clip-rule="evenodd" d="M26.4207 12.9355C26.4207 8.00055 30.4213 4 35.3562 4C40.2911 4 44.2917 8.00055 44.2917 12.9355C44.2917 12.973 44.2914 13.0105 44.291 13.0479L62.5862 13.0479L62.5862 67.6341L8 67.6341L8 49.3626C12.8714 49.289 16.7977 45.3171 16.7977 40.4282C16.7977 35.5393 12.8714 31.5674 8 31.4938V13.0479L26.4214 13.0479C26.4209 13.0105 26.4207 12.973 26.4207 12.9355Z"/>
</mask>
<path fill-rule="evenodd" clip-rule="evenodd" d="M26.4207 12.9355C26.4207 8.00055 30.4213 4 35.3562 4C40.2911 4 44.2917 8.00055 44.2917 12.9355C44.2917 12.973 44.2914 13.0105 44.291 13.0479L62.5862 13.0479L62.5862 67.6341L8 67.6341L8 49.3626C12.8714 49.289 16.7977 45.3171 16.7977 40.4282C16.7977 35.5393 12.8714 31.5674 8 31.4938V13.0479L26.4214 13.0479C26.4209 13.0105 26.4207 12.973 26.4207 12.9355Z" fill="white"/>
<path d="M44.291 13.0479L42.7911 13.0294L42.7724 14.5479H44.291V13.0479ZM62.5862 13.0479H64.0862V11.5479H62.5862V13.0479ZM62.5862 67.6341V69.1341H64.0862V67.6341H62.5862ZM8 67.6341H6.5L6.5 69.1341H8L8 67.6341ZM8 49.3626L7.97733 47.8628L6.5 47.8851L6.5 49.3626H8ZM8 31.4938H6.5V32.9713L7.97733 32.9936L8 31.4938ZM8 13.0479L8 11.5479H6.5V13.0479H8ZM26.4214 13.0479V14.5479H27.94L27.9213 13.0294L26.4214 13.0479ZM35.3562 2.5C29.5928 2.5 24.9207 7.17212 24.9207 12.9355H27.9207C27.9207 8.82898 31.2497 5.5 35.3562 5.5V2.5ZM45.7917 12.9355C45.7917 7.17212 41.1195 2.5 35.3562 2.5V5.5C39.4627 5.5 42.7917 8.82897 42.7917 12.9355H45.7917ZM45.7909 13.0664C45.7914 13.0229 45.7917 12.9792 45.7917 12.9355H42.7917C42.7917 12.9668 42.7915 12.9981 42.7911 13.0294L45.7909 13.0664ZM44.291 14.5479L62.5862 14.5479V11.5479L44.291 11.5479V14.5479ZM61.0862 13.0479L61.0862 67.6341H64.0862L64.0862 13.0479H61.0862ZM62.5862 66.1341L8 66.1341L8 69.1341L62.5862 69.1341V66.1341ZM9.5 67.6341L9.5 49.3626H6.5L6.5 67.6341H9.5ZM8.02267 50.8625C13.7123 50.7765 18.2977 46.138 18.2977 40.4282H15.2977C15.2977 44.4963 12.0305 47.8015 7.97733 47.8628L8.02267 50.8625ZM18.2977 40.4282C18.2977 34.7185 13.7123 30.08 8.02267 29.9939L7.97733 32.9936C12.0305 33.0549 15.2977 36.3601 15.2977 40.4282H18.2977ZM9.5 31.4938V13.0479H6.5V31.4938H9.5ZM8 14.5479L26.4214 14.5479V11.5479L8 11.5479L8 14.5479ZM24.9207 12.9355C24.9207 12.9792 24.921 13.0228 24.9215 13.0664L27.9213 13.0294C27.9209 12.9982 27.9207 12.9669 27.9207 12.9355H24.9207Z" fill="#18181B" mask="url(#path-1-inside-1)"/>
</svg>
