<svg width="80" height="80" viewBox="0 0 80 80" fill="none" xmlns="http://www.w3.org/2000/svg">
<mask id="path-1-inside-1" fill="white">
<path fill-rule="evenodd" clip-rule="evenodd" d="M63.5862 31.1707C68.5161 31.1766 72.5107 35.1749 72.5107 40.1062C72.5107 45.0375 68.5161 49.0358 63.5862 49.0417L63.5862 67.5862L8.99999 67.5862L8.99999 49.0402C13.8715 48.9667 17.7979 44.9948 17.7979 40.1058C17.7979 35.2168 13.8715 31.2448 8.99998 31.1713L8.99998 13L27.4216 13C27.482 17.8829 31.4591 21.8226 36.3563 21.8226C41.2536 21.8226 45.2307 17.8829 45.2911 13L63.5862 13L63.5862 31.1707Z"/>
</mask>
<path fill-rule="evenodd" clip-rule="evenodd" d="M63.5862 31.1707C68.5161 31.1766 72.5107 35.1749 72.5107 40.1062C72.5107 45.0375 68.5161 49.0358 63.5862 49.0417L63.5862 67.5862L8.99999 67.5862L8.99999 49.0402C13.8715 48.9667 17.7979 44.9948 17.7979 40.1058C17.7979 35.2168 13.8715 31.2448 8.99998 31.1713L8.99998 13L27.4216 13C27.482 17.8829 31.4591 21.8226 36.3563 21.8226C41.2536 21.8226 45.2307 17.8829 45.2911 13L63.5862 13L63.5862 31.1707Z" fill="white"/>
<path d="M63.5862 31.1707L62.0862 31.1707L62.0862 32.6689L63.5844 32.6707L63.5862 31.1707ZM63.5862 49.0417L63.5844 47.5417L62.0862 47.5435L62.0862 49.0417L63.5862 49.0417ZM63.5862 67.5862L63.5862 69.0862L65.0862 69.0862L65.0862 67.5862L63.5862 67.5862ZM8.99999 67.5862L7.49998 67.5862L7.49998 69.0862L8.99999 69.0862L8.99999 67.5862ZM8.99999 49.0402L8.97736 47.5404L7.49998 47.5627L7.49998 49.0402L8.99999 49.0402ZM8.99998 31.1713L7.49998 31.1713L7.49998 32.6489L8.97735 32.6712L8.99998 31.1713ZM8.99998 13L8.99998 11.5L7.49998 11.5L7.49998 13L8.99998 13ZM27.4216 13L28.9215 12.9814L28.9031 11.5L27.4216 11.5L27.4216 13ZM45.2911 13L45.2911 11.5L43.8096 11.5L43.7912 12.9814L45.2911 13ZM63.5862 13L65.0862 13L65.0862 11.5L63.5862 11.5L63.5862 13ZM74.0107 40.1062C74.0107 34.3471 69.3455 29.6776 63.588 29.6707L63.5844 32.6707C67.6867 32.6756 71.0107 36.0028 71.0107 40.1062L74.0107 40.1062ZM63.588 50.5417C69.3455 50.5348 74.0107 45.8653 74.0107 40.1062L71.0107 40.1062C71.0107 44.2097 67.6867 47.5368 63.5844 47.5417L63.588 50.5417ZM65.0862 67.5862L65.0862 49.0417L62.0862 49.0417L62.0862 67.5862L65.0862 67.5862ZM8.99999 69.0862L63.5862 69.0862L63.5862 66.0862L8.99999 66.0862L8.99999 69.0862ZM7.49998 49.0402L7.49998 67.5862L10.5 67.5862L10.5 49.0402L7.49998 49.0402ZM16.2979 40.1058C16.2979 44.1739 13.0306 47.4792 8.97736 47.5404L9.02262 50.54C14.7124 50.4542 19.2979 45.8156 19.2979 40.1058L16.2979 40.1058ZM8.97735 32.6712C13.0306 32.7323 16.2979 36.0376 16.2979 40.1058L19.2979 40.1058C19.2979 34.3959 14.7124 29.7574 9.02262 29.6715L8.97735 32.6712ZM7.49998 13L7.49998 31.1713L10.5 31.1713L10.5 13L7.49998 13ZM27.4216 11.5L8.99998 11.5L8.99998 14.5L27.4216 14.5L27.4216 11.5ZM36.3563 20.3226C32.2813 20.3226 28.9718 17.0442 28.9215 12.9814L25.9217 13.0186C25.9923 18.7216 30.6369 23.3226 36.3563 23.3226L36.3563 20.3226ZM43.7912 12.9814C43.7409 17.0442 40.4314 20.3226 36.3563 20.3226L36.3563 23.3226C42.0758 23.3226 46.7204 18.7216 46.791 13.0186L43.7912 12.9814ZM63.5862 11.5L45.2911 11.5L45.2911 14.5L63.5862 14.5L63.5862 11.5ZM65.0862 31.1707L65.0862 13L62.0862 13L62.0862 31.1707L65.0862 31.1707Z" fill="#18181B" mask="url(#path-1-inside-1)"/>
</svg>
