<svg width="80" height="80" viewBox="0 0 80 80" fill="none" xmlns="http://www.w3.org/2000/svg">
<mask id="path-1-inside-1" fill="white">
<path fill-rule="evenodd" clip-rule="evenodd" d="M61.0756 31.1694C66.0054 31.1753 70 35.1736 70 40.1048C70 45.0361 66.0054 49.0343 61.0756 49.0403L61.0756 67.5862L6.48938 67.5862L6.48938 13L24.6368 13C24.6359 13.0542 24.6354 13.1086 24.6354 13.163C24.6354 18.098 28.6359 22.0985 33.5709 22.0985C38.5058 22.0985 42.5063 18.098 42.5063 13.163C42.5063 13.1086 42.5058 13.0542 42.5049 13L61.0756 13L61.0756 31.1694Z"/>
</mask>
<path fill-rule="evenodd" clip-rule="evenodd" d="M61.0756 31.1694C66.0054 31.1753 70 35.1736 70 40.1048C70 45.0361 66.0054 49.0343 61.0756 49.0403L61.0756 67.5862L6.48938 67.5862L6.48938 13L24.6368 13C24.6359 13.0542 24.6354 13.1086 24.6354 13.163C24.6354 18.098 28.6359 22.0985 33.5709 22.0985C38.5058 22.0985 42.5063 18.098 42.5063 13.163C42.5063 13.1086 42.5058 13.0542 42.5049 13L61.0756 13L61.0756 31.1694Z" fill="white"/>
<path d="M61.0756 31.1694L59.5756 31.1694L59.5756 32.6675L61.0738 32.6694L61.0756 31.1694ZM61.0756 49.0403L61.0738 47.5403L59.5756 47.5421L59.5756 49.0403L61.0756 49.0403ZM61.0756 67.5862L61.0756 69.0862L62.5756 69.0862L62.5756 67.5862L61.0756 67.5862ZM6.48938 67.5862L4.98939 67.5862L4.98939 69.0862L6.48938 69.0862L6.48938 67.5862ZM6.48938 13L6.48938 11.5L4.98938 11.5L4.98938 13L6.48938 13ZM24.6368 13L26.1366 13.0268L26.1639 11.5L24.6368 11.5L24.6368 13ZM33.5709 22.0985L33.5709 23.5985L33.5709 22.0985ZM42.5049 13L42.5049 11.5L40.9778 11.5L41.0051 13.0268L42.5049 13ZM61.0756 13L62.5756 13L62.5756 11.5L61.0756 11.5L61.0756 13ZM71.5 40.1048C71.5 34.3458 66.8349 29.6763 61.0774 29.6694L61.0738 32.6694C65.176 32.6743 68.5 36.0014 68.5 40.1048L71.5 40.1048ZM61.0774 50.5403C66.8349 50.5333 71.5 45.8639 71.5 40.1048L68.5 40.1048C68.5 44.2082 65.176 47.5353 61.0738 47.5403L61.0774 50.5403ZM59.5756 49.0403L59.5756 67.5862L62.5756 67.5862L62.5756 49.0403L59.5756 49.0403ZM61.0756 66.0862L6.48938 66.0862L6.48938 69.0862L61.0756 69.0862L61.0756 66.0862ZM7.98938 67.5862L7.98938 13L4.98938 13L4.98939 67.5862L7.98938 67.5862ZM6.48938 14.5L24.6368 14.5L24.6368 11.5L6.48938 11.5L6.48938 14.5ZM23.1371 12.9732C23.136 13.0363 23.1354 13.0996 23.1354 13.163L26.1354 13.163C26.1354 13.1175 26.1358 13.0721 26.1366 13.0268L23.1371 12.9732ZM23.1354 13.163C23.1354 18.9264 27.8075 23.5985 33.5709 23.5985L33.5709 20.5985C29.4644 20.5985 26.1354 17.2695 26.1354 13.163L23.1354 13.163ZM33.5709 23.5985C39.3342 23.5985 44.0063 18.9264 44.0063 13.163L41.0063 13.163C41.0063 17.2695 37.6774 20.5985 33.5709 20.5985L33.5709 23.5985ZM44.0063 13.163C44.0063 13.0997 44.0058 13.0364 44.0046 12.9732L41.0051 13.0268C41.0059 13.0721 41.0063 13.1175 41.0063 13.163L44.0063 13.163ZM42.5049 14.5L61.0756 14.5L61.0756 11.5L42.5049 11.5L42.5049 14.5ZM59.5756 13L59.5756 31.1694L62.5756 31.1694L62.5756 13L59.5756 13Z" fill="#18181B" mask="url(#path-1-inside-1)"/>
</svg>
