<svg width="116" height="180" viewBox="0 0 116 180" fill="none" xmlns="http://www.w3.org/2000/svg">
<path d="M73.9165 75.4449C73.9165 92.8241 59.7786 106.917 42.3332 106.917C24.8879 106.917 10.75 92.8241 10.75 75.4449C10.75 58.0657 24.8879 43.9727 42.3332 43.9727C59.7786 43.9727 73.9165 58.0657 73.9165 75.4449Z" fill="#B4F5DE" stroke="#18181B" stroke-width="1.5"/>
<path d="M106.25 106.554C106.25 123.933 92.1119 138.026 74.6665 138.026C57.2211 138.026 43.0833 123.933 43.0833 106.554C43.0833 89.175 57.2211 75.082 74.6665 75.082C92.1119 75.082 106.25 89.175 106.25 106.554Z" fill="#B4F5DE" stroke="#18181B" stroke-width="1.5"/>
<path d="M106.25 43.2222C106.25 60.6014 92.1119 74.6944 74.6665 74.6944C57.2211 74.6944 43.0833 60.6014 43.0833 43.2222C43.0833 25.843 57.2211 11.75 74.6665 11.75C92.1119 11.75 106.25 25.843 106.25 43.2222Z" fill="#B4F5DE" stroke="#18181B" stroke-width="1.5"/>
<path d="M75.0317 138.777C75.0317 156.156 60.8938 170.249 43.4485 170.249C26.0031 170.249 11.8652 156.156 11.8652 138.777C11.8652 121.398 26.0031 107.305 43.4485 107.305C60.8938 107.305 75.0317 121.398 75.0317 138.777Z" fill="#B4F5DE" stroke="#18181B" stroke-width="1.5"/>
<path d="M73.9165 75.4449C73.9165 92.8241 59.7786 106.917 42.3332 106.917C24.8879 106.917 10.75 92.8241 10.75 75.4449C10.75 58.0657 24.8879 43.9727 42.3332 43.9727C59.7786 43.9727 73.9165 58.0657 73.9165 75.4449Z" stroke="#18181B" stroke-width="1.5"/>
<path d="M106.25 106.554C106.25 123.933 92.1119 138.026 74.6665 138.026C57.2211 138.026 43.0833 123.933 43.0833 106.554C43.0833 89.175 57.2211 75.082 74.6665 75.082C92.1119 75.082 106.25 89.175 106.25 106.554Z" stroke="#18181B" stroke-width="1.5"/>
<path d="M106.25 43.2222C106.25 60.6014 92.1119 74.6944 74.6665 74.6944C57.2211 74.6944 43.0833 60.6014 43.0833 43.2222C43.0833 25.843 57.2211 11.75 74.6665 11.75C92.1119 11.75 106.25 25.843 106.25 43.2222Z" stroke="#18181B" stroke-width="1.5"/>
<path d="M75.0317 138.777C75.0317 156.156 60.8938 170.249 43.4485 170.249C26.0031 170.249 11.8652 156.156 11.8652 138.777C11.8652 121.398 26.0031 107.305 43.4485 107.305C60.8938 107.305 75.0317 121.398 75.0317 138.777Z" stroke="#18181B" stroke-width="1.5"/>
</svg>
