<svg width="116" height="180" viewBox="0 0 116 180" fill="none" xmlns="http://www.w3.org/2000/svg">
<path d="M8 90C8 134.183 30.3858 170 58 170C85.6142 170 108 134.183 108 90C108 45.8172 85.6142 10 58 10C30.3858 10 8 45.8172 8 90Z" fill="#FFC6B5" stroke="#18181B" stroke-width="1.5" stroke-miterlimit="10"/>
<path d="M36.1538 90C36.1538 134.183 45.9344 170 57.9994 170C70.0644 170 79.845 134.183 79.845 90C79.845 45.8172 70.0644 10 57.9994 10C45.9344 10 36.1538 45.8172 36.1538 90Z" stroke="#18181B" stroke-width="1.5" stroke-miterlimit="10"/>
<path d="M8 90.0003C8 108.349 30.3858 123.223 58 123.223C85.6142 123.223 108 108.349 108 90.0003C108 71.6518 85.6142 56.7773 58 56.7773C30.3858 56.7773 8 71.6518 8 90.0003Z" stroke="#18181B" stroke-width="1.5" stroke-miterlimit="10"/>
</svg>
