<svg width="94" height="158" viewBox="0 0 94 158" fill="none" xmlns="http://www.w3.org/2000/svg">
<path d="M46.9997 1.57212C21.6592 1.57212 1.11667 12.7217 1.11668 26.4753C1.11668 40.2289 21.6592 51.3784 46.9997 51.3784C72.3403 51.3784 92.8828 40.2289 92.8828 26.4753C92.8828 12.7216 72.3403 1.57212 46.9997 1.57212Z" fill="#FFC6B5"/>
<path d="M46.9997 36.5902C21.6592 36.5902 1.11667 47.7397 1.11668 61.4933C1.11668 75.247 21.6592 86.3965 46.9997 86.3965C72.3403 86.3965 92.8828 75.247 92.8828 61.4933C92.8828 47.7397 72.3403 36.5902 46.9997 36.5902Z" fill="#FFC6B5"/>
<path d="M46.9992 71.6043C21.6587 71.6044 1.11619 82.7539 1.11619 96.5075C1.11619 110.261 21.6587 121.411 46.9993 121.411C72.3398 121.411 92.8823 110.261 92.8823 96.5075C92.8823 82.7539 72.3398 71.6043 46.9992 71.6043Z" fill="#FFC6B5"/>
<path d="M47.0002 106.622C21.6597 106.622 1.11716 117.772 1.11717 131.526C1.11717 145.279 21.6597 156.429 47.0002 156.429C72.3408 156.429 92.8833 145.279 92.8833 131.526C92.8833 117.772 72.3407 106.622 47.0002 106.622Z" fill="#FFC6B5"/>
<path d="M46.9997 1.5731C21.6592 1.5731 1.11667 12.7226 1.11668 26.4763C1.11668 40.2299 21.6592 51.3794 46.9997 51.3794C72.3403 51.3794 92.8828 40.2299 92.8828 26.4762C92.8828 12.7226 72.3403 1.57309 46.9997 1.5731Z" stroke="#18181B" stroke-width="1.5" stroke-miterlimit="10"/>
<path d="M46.9997 36.5902C21.6592 36.5902 1.11667 47.7397 1.11668 61.4933C1.11668 75.247 21.6592 86.3965 46.9997 86.3965C72.3403 86.3965 92.8828 75.247 92.8828 61.4933C92.8828 47.7397 72.3403 36.5902 46.9997 36.5902Z" stroke="#18181B" stroke-width="1.5" stroke-miterlimit="10"/>
<path d="M46.9992 71.6058C21.6587 71.6058 1.11619 82.7553 1.11619 96.509C1.11619 110.263 21.6587 121.412 46.9993 121.412C72.3398 121.412 92.8823 110.263 92.8823 96.509C92.8823 82.7553 72.3398 71.6058 46.9992 71.6058Z" stroke="#18181B" stroke-width="1.5" stroke-miterlimit="10"/>
<path d="M46.9992 106.622C21.6587 106.622 1.11619 117.772 1.11619 131.526C1.11619 145.279 21.6587 156.429 46.9993 156.429C72.3398 156.429 92.8823 145.279 92.8823 131.526C92.8823 117.772 72.3398 106.622 46.9992 106.622Z" stroke="#18181B" stroke-width="1.5" stroke-miterlimit="10"/>
</svg>
