<svg width="128" height="108" viewBox="0 0 128 108" fill="none" xmlns="http://www.w3.org/2000/svg">
<path d="M62.1231 37.6526L116.006 23.2148L109.268 37.6672L122.439 46.6236L75.8307 59.1122C71.7303 60.2109 67.702 58.4734 66.8334 55.2314L62.1231 37.6526Z" fill="#18181B" stroke="#18181B" stroke-width="1.5" stroke-miterlimit="10" stroke-linecap="round" stroke-linejoin="round"/>
<path d="M57.5878 50.805L121.726 67.9907L108.665 77.1381L115.593 91.4798L58.7291 76.2433C54.6287 75.1446 52.0089 71.6258 52.8776 68.3838L57.5878 50.805Z" fill="#F2F1F1" stroke="#18181B" stroke-width="1.5" stroke-miterlimit="10" stroke-linecap="round" stroke-linejoin="round"/>
<path d="M38.3226 96.7804C41.4035 100.073 46.5965 100.073 49.6774 96.7804L51.4979 94.8347C53.6736 92.5093 56.8768 91.4595 59.9966 92.0526L62.6043 92.5483C67.0115 93.3861 71.2194 90.313 71.7925 85.8153L72.1305 83.1627C72.534 79.9962 74.5107 77.2519 77.3791 75.8843L79.7779 74.7407C83.8369 72.8055 85.4482 67.8204 83.2888 63.8425L82.0152 61.4963C80.4942 58.6945 80.4942 55.3055 82.0152 52.5037L83.2888 50.1575C85.4482 46.1796 83.8369 41.1945 79.7779 39.2593L77.3792 38.1157C74.5107 36.7481 72.534 34.0038 72.1305 30.8373L71.7925 28.1847C71.2194 23.687 67.0115 20.6139 62.6043 21.4517L59.9966 21.9474C56.8768 22.5405 53.6736 21.4907 51.4979 19.1653L49.6774 17.2196C46.5965 13.9268 41.4035 13.9268 38.3226 17.2196L36.5021 19.1653C34.3264 21.4907 31.1232 22.5405 28.0034 21.9474L25.3957 21.4517C20.9885 20.6139 16.7806 23.687 16.2075 28.1847L15.8695 30.8373C15.466 34.0038 13.4893 36.7481 10.6209 38.1157L8.22207 39.2593C4.16312 41.1945 2.55182 46.1796 4.71118 50.1575L5.98481 52.5037C7.50576 55.3055 7.50576 58.6945 5.98481 61.4963L4.71118 63.8425C2.55181 67.8204 4.16312 72.8055 8.22208 74.7407L10.6209 75.8843C13.4893 77.2519 15.466 79.9962 15.8695 83.1627L16.2075 85.8153C16.7806 90.313 20.9885 93.3861 25.3957 92.5483L28.0034 92.0526C31.1232 91.4595 34.3264 92.5093 36.5021 94.8347L38.3226 96.7804Z" fill="#18181B" stroke="#F2F1F1" stroke-width="1.5"/>
<ellipse rx="28.5" ry="29" transform="matrix(1 0 0 -1 44.5 57)" fill="#F2F1F1"/>
<path d="M32 57.5294L40.32 66L58 48" stroke="#18181B" stroke-width="2.5" stroke-linecap="round" stroke-linejoin="round"/>
</svg>
