<svg width="108" height="108" viewBox="0 0 108 108" fill="none" xmlns="http://www.w3.org/2000/svg">
<path d="M88.2209 98.0013H56.793V49.51L75.5668 28.4665C76.967 26.8908 79.5601 26.84 81.0122 28.4665L100.149 49.51V86.6155C100.149 92.9184 94.8073 98.0013 88.2209 98.0013Z" fill="#18181B" stroke="#18181B" stroke-width="1.5" stroke-miterlimit="10"/>
<path d="M81.3791 36.0391H25.4727V45.29H81.3791V36.0391Z" fill="#18181B" stroke="#18181B" stroke-width="1.5" stroke-miterlimit="10"/>
<path d="M99.8723 29.7861C99.5538 28.5045 97.9552 28.064 96.9895 28.9292L89.2526 36.1091C87.0833 38.1481 83.6369 38.0444 81.555 35.9159L80.7474 35.0915C78.6655 32.963 78.7679 29.5845 80.9372 27.5455L88.6866 20.3162C89.6646 19.4018 89.2696 17.7874 87.973 17.4203C82.2957 15.7803 75.9484 17.0144 71.2705 21.1671C66.505 25.4556 64.7394 31.8337 66.1665 37.6255L35.5069 66.0487C33.3376 68.0876 33.2476 71.4168 35.3171 73.5947L39.759 78.2334C41.8409 80.362 45.2369 80.4534 47.4566 78.4266L78.0534 50.0406C83.7811 51.6929 90.2415 50.4338 94.9187 46.0715C99.5835 41.7586 101.274 35.467 99.8723 29.7861Z" fill="#F2F1F1" stroke="#18181B" stroke-width="1.5" stroke-miterlimit="10"/>
<path d="M94.2923 98.0008H32.9922V56.0156H100.204V92.1554C100.204 95.4085 97.5595 98.0008 94.2923 98.0008Z" fill="#18181B" stroke="#18181B" stroke-width="1.5" stroke-miterlimit="10"/>
<path d="M41.4439 98.0013H9.91219C6.64493 98.0013 4 95.4598 4 92.3592V49.51L22.7738 28.4665C24.174 26.8908 26.7671 26.84 28.2192 28.4665L47.3561 49.51V92.3592C47.3561 95.4598 44.7111 98.0013 41.4439 98.0013Z" fill="#F2F1F1" stroke="#18181B" stroke-width="1.5" stroke-miterlimit="10"/>
<path d="M25.6725 45.0869C28.2789 45.0869 30.3919 43.016 30.3919 40.4614C30.3919 37.9068 28.2789 35.8359 25.6725 35.8359C23.0661 35.8359 20.9531 37.9068 20.9531 40.4614C20.9531 43.016 23.0661 45.0869 25.6725 45.0869Z" fill="#18181B" stroke="#18181B" stroke-width="1.5" stroke-miterlimit="10"/>
<path d="M75.1562 55.5625L101.841 55.5625" stroke="#F2F1F1" stroke-width="1.5" stroke-linecap="square" stroke-linejoin="round"/>
</svg>
